<svg version="1.1" id="Layer_1" xmlns="http://www.w3.org/2000/svg" xmlns:xlink="http://www.w3.org/1999/xlink" x="0px" y="0px"
	 width="100%" viewBox="0 0 478 455" enable-background="new 0 0 478 455" xml:space="preserve">
<path fill="#000000" opacity="1.000000" stroke="none" 
	d="
M225.000000,456.000000 
	C150.019958,456.000000 75.539917,456.000000 1.029940,456.000000 
	C1.029940,304.393921 1.029940,152.787857 1.029940,1.090893 
	C160.230011,1.090893 319.460083,1.090893 478.845093,1.090893 
	C478.845093,152.666550 478.845093,304.333252 478.845093,456.000000 
	C394.454590,456.000000 309.977295,456.000000 225.000000,456.000000 
M314.356689,407.043884 
	C326.151337,415.009827 337.783661,423.231171 349.791473,430.861633 
	C359.573853,437.077942 371.145538,433.237122 375.396912,423.165588 
	C377.892090,417.254517 375.579193,411.954102 374.028564,406.429504 
	C367.849792,384.416046 361.796844,362.367279 355.697723,340.331482 
	C351.683350,325.827759 346.944946,311.600464 350.830292,296.001404 
	C354.805237,280.042480 362.469727,266.897156 375.493927,256.820923 
	C385.424744,249.137955 395.211151,241.268173 405.056458,233.474777 
	C417.568817,223.570236 430.001343,213.562714 442.617584,203.792389 
	C448.627502,199.138168 451.653900,191.779953 449.853607,184.604218 
	C448.212860,178.064285 441.702728,172.454437 434.727295,172.049591 
	C420.900024,171.247086 407.064636,170.538986 393.223877,170.027817 
	C379.805359,169.532242 366.374084,169.391083 352.952179,168.973938 
	C347.693848,168.810516 342.313202,168.947174 337.215637,167.870560 
	C313.924255,162.951324 296.387482,150.082611 287.506805,127.755341 
	C276.392487,99.812241 266.403290,71.420807 255.991150,43.199760 
	C253.377106,36.114697 247.270218,31.170191 240.502121,31.004654 
	C232.703934,30.813921 226.051620,34.960716 223.334579,42.239948 
	C215.790894,62.450256 208.636719,82.808319 200.903458,102.944710 
	C195.502518,117.008003 191.750076,131.872437 182.000748,143.974686 
	C170.838989,157.830276 156.277267,165.830963 138.819534,167.857254 
	C126.393509,169.299515 113.809830,169.456573 101.287918,169.982635 
	C82.947166,170.753098 64.600929,171.413467 46.252514,171.972244 
	C38.225857,172.216690 32.108639,176.391037 29.729855,183.741745 
	C27.264435,191.360138 29.851526,198.991760 36.276512,203.784561 
	C43.440376,209.128540 50.561718,214.536057 57.559864,220.094330 
	C72.749367,232.158630 87.711731,244.512421 103.017204,256.426361 
	C125.506439,273.932190 133.604126,297.291809 127.560043,324.199005 
	C120.999939,353.403442 111.582588,381.960205 103.766609,410.895416 
	C102.717796,414.778168 102.909561,419.452637 103.984253,423.359619 
	C106.399757,432.141113 118.982994,437.914276 130.324615,430.189850 
	C144.448898,420.570190 158.581375,410.954224 172.919617,401.659485 
	C186.436966,392.896912 199.700195,383.510132 214.028442,376.289459 
	C231.959930,367.252991 251.205658,368.301788 268.595276,377.620575 
	C284.328217,386.051636 298.665558,397.087006 314.356689,407.043884 
z"/>
<path fill="#FFDE59" opacity="1.000000" stroke="none" 
	d="
M313.987488,407.008972 
	C298.665558,397.087006 284.328217,386.051636 268.595276,377.620575 
	C251.205658,368.301788 231.959930,367.252991 214.028442,376.289459 
	C199.700195,383.510132 186.436966,392.896912 172.919617,401.659485 
	C158.581375,410.954224 144.448898,420.570190 130.324615,430.189850 
	C118.982994,437.914276 106.399757,432.141113 103.984253,423.359619 
	C102.909561,419.452637 102.717796,414.778168 103.766609,410.895416 
	C111.582588,381.960205 120.999939,353.403442 127.560043,324.199005 
	C133.604126,297.291809 125.506439,273.932190 103.017204,256.426361 
	C87.711731,244.512421 72.749367,232.158630 57.559864,220.094330 
	C50.561718,214.536057 43.440376,209.128540 36.276512,203.784561 
	C29.851526,198.991760 27.264435,191.360138 29.729855,183.741745 
	C32.108639,176.391037 38.225857,172.216690 46.252514,171.972244 
	C64.600929,171.413467 82.947166,170.753098 101.287918,169.982635 
	C113.809830,169.456573 126.393509,169.299515 138.819534,167.857254 
	C156.277267,165.830963 170.838989,157.830276 182.000748,143.974686 
	C191.750076,131.872437 195.502518,117.008003 200.903458,102.944710 
	C208.636719,82.808319 215.790894,62.450256 223.334579,42.239948 
	C226.051620,34.960716 232.703934,30.813921 240.502121,31.004654 
	C247.270218,31.170191 253.377106,36.114697 255.991150,43.199760 
	C266.403290,71.420807 276.392487,99.812241 287.506805,127.755341 
	C296.387482,150.082611 313.924255,162.951324 337.215637,167.870560 
	C342.313202,168.947174 347.693848,168.810516 352.952179,168.973938 
	C366.374084,169.391083 379.805359,169.532242 393.223877,170.027817 
	C407.064636,170.538986 420.900024,171.247086 434.727295,172.049591 
	C441.702728,172.454437 448.212860,178.064285 449.853607,184.604218 
	C451.653900,191.779953 448.627502,199.138168 442.617584,203.792389 
	C430.001343,213.562714 417.568817,223.570236 405.056458,233.474777 
	C395.211151,241.268173 385.424744,249.137955 375.493927,256.820923 
	C362.469727,266.897156 354.805237,280.042480 350.830292,296.001404 
	C346.944946,311.600464 351.683350,325.827759 355.697723,340.331482 
	C361.796844,362.367279 367.849792,384.416046 374.028564,406.429504 
	C375.579193,411.954102 377.892090,417.254517 375.396912,423.165588 
	C371.145538,433.237122 359.573853,437.077942 349.791473,430.861633 
	C337.783661,423.231171 326.151337,415.009827 313.987488,407.008972 
z"/>
</svg>