<svg version="1.1" id="Layer_1" xmlns="http://www.w3.org/2000/svg" xmlns:xlink="http://www.w3.org/1999/xlink" x="0px" y="0px"
	 width="100%" viewBox="0 0 477 455" enable-background="new 0 0 477 455" xml:space="preserve">
<path fill="#000000" opacity="1.000000" stroke="none" 
	d="
M309.000000,456.000000 
	C206.000000,456.000000 103.500000,456.000000 1.000000,456.000000 
	C1.000000,304.333344 1.000000,152.666672 1.000000,1.000000 
	C160.000000,1.000000 319.000000,1.000000 478.000000,1.000000 
	C478.000000,152.666672 478.000000,304.333344 478.000000,456.000000 
	C421.833344,456.000000 365.666656,456.000000 309.000000,456.000000 
M361.197968,432.980225 
	C371.298828,432.399994 377.831757,422.649658 374.841461,411.788879 
	C368.257660,387.876434 361.332336,364.058197 354.596375,340.187378 
	C350.462311,325.537018 346.211151,311.083191 349.820160,295.371185 
	C353.424683,279.678497 361.575775,267.210480 373.620087,257.143250 
	C383.984497,248.480194 394.819183,240.379791 405.446228,232.031006 
	C417.357483,222.673386 429.238373,213.276810 441.193207,203.975220 
	C447.275757,199.242645 451.257751,193.292969 448.634766,184.180191 
	C446.509399,176.796310 440.228333,172.354126 431.803314,171.995285 
	C416.956726,171.362915 402.116028,170.582657 387.266937,170.021606 
	C375.183777,169.565063 363.084503,169.500183 351.007080,168.942886 
	C344.821350,168.657455 338.545471,168.230240 332.521606,166.906052 
	C310.173462,161.993393 294.689331,148.178741 286.325317,127.387329 
	C275.216949,99.773842 265.185486,71.718552 255.129852,43.695736 
	C252.362442,35.983570 245.576721,31.453558 239.968918,31.066626 
	C231.697876,30.495934 225.800156,34.390053 222.528763,43.037437 
	C212.560410,69.387108 202.644150,95.760254 193.106598,122.267822 
	C186.680725,140.127151 175.401703,153.332932 158.584854,162.160187 
	C148.417679,167.497009 137.374527,168.087341 126.453789,168.876984 
	C110.144577,170.056244 93.771881,170.375458 77.423470,170.988129 
	C66.503525,171.397324 55.572815,171.551773 44.658264,172.062637 
	C36.423279,172.448059 30.652992,177.721985 28.353350,185.191696 
	C26.322771,191.787445 29.175442,198.380585 35.722729,203.309814 
	C39.501659,206.154846 43.044201,209.311508 46.762535,212.239792 
	C58.538258,221.513428 70.486946,230.573578 82.100441,240.045242 
	C92.426140,248.466660 102.870697,256.837402 112.398285,266.118011 
	C124.012001,277.430664 128.485626,292.326904 128.856720,308.098999 
	C129.219666,323.525085 123.149399,337.850952 119.166168,352.497559 
	C113.751976,372.405792 108.540771,392.371613 102.873962,412.207489 
	C100.706123,419.795715 102.653992,425.774017 108.300262,430.608948 
	C112.415688,434.133057 124.041183,433.874939 129.282608,430.306183 
	C151.360199,415.273865 173.733749,400.675720 195.786865,385.608215 
	C210.602280,375.485748 226.141327,368.944000 244.670746,370.828064 
	C256.824615,372.063843 267.535614,376.402771 277.486572,383.009125 
	C298.814026,397.168213 319.981567,411.568848 341.353363,425.660034 
	C347.056427,429.420258 352.363647,434.767578 361.197968,432.980225 
z"/>
<path fill="#CCC6E8" opacity="1.000000" stroke="none" 
	d="
M360.749542,432.980438 
	C352.363647,434.767578 347.056427,429.420258 341.353363,425.660034 
	C319.981567,411.568848 298.814026,397.168213 277.486572,383.009125 
	C267.535614,376.402771 256.824615,372.063843 244.670746,370.828064 
	C226.141327,368.944000 210.602280,375.485748 195.786865,385.608215 
	C173.733749,400.675720 151.360199,415.273865 129.282608,430.306183 
	C124.041183,433.874939 112.415688,434.133057 108.300262,430.608948 
	C102.653992,425.774017 100.706123,419.795715 102.873962,412.207489 
	C108.540771,392.371613 113.751976,372.405792 119.166168,352.497559 
	C123.149399,337.850952 129.219666,323.525085 128.856720,308.098999 
	C128.485626,292.326904 124.012001,277.430664 112.398285,266.118011 
	C102.870697,256.837402 92.426140,248.466660 82.100441,240.045242 
	C70.486946,230.573578 58.538258,221.513428 46.762535,212.239792 
	C43.044201,209.311508 39.501659,206.154846 35.722729,203.309814 
	C29.175442,198.380585 26.322771,191.787445 28.353350,185.191696 
	C30.652992,177.721985 36.423279,172.448059 44.658264,172.062637 
	C55.572815,171.551773 66.503525,171.397324 77.423470,170.988129 
	C93.771881,170.375458 110.144577,170.056244 126.453789,168.876984 
	C137.374527,168.087341 148.417679,167.497009 158.584854,162.160187 
	C175.401703,153.332932 186.680725,140.127151 193.106598,122.267822 
	C202.644150,95.760254 212.560410,69.387108 222.528763,43.037437 
	C225.800156,34.390053 231.697876,30.495934 239.968918,31.066626 
	C245.576721,31.453558 252.362442,35.983570 255.129852,43.695736 
	C265.185486,71.718552 275.216949,99.773842 286.325317,127.387329 
	C294.689331,148.178741 310.173462,161.993393 332.521606,166.906052 
	C338.545471,168.230240 344.821350,168.657455 351.007080,168.942886 
	C363.084503,169.500183 375.183777,169.565063 387.266937,170.021606 
	C402.116028,170.582657 416.956726,171.362915 431.803314,171.995285 
	C440.228333,172.354126 446.509399,176.796310 448.634766,184.180191 
	C451.257751,193.292969 447.275757,199.242645 441.193207,203.975220 
	C429.238373,213.276810 417.357483,222.673386 405.446228,232.031006 
	C394.819183,240.379791 383.984497,248.480194 373.620087,257.143250 
	C361.575775,267.210480 353.424683,279.678497 349.820160,295.371185 
	C346.211151,311.083191 350.462311,325.537018 354.596375,340.187378 
	C361.332336,364.058197 368.257660,387.876434 374.841461,411.788879 
	C377.831757,422.649658 371.298828,432.399994 360.749542,432.980438 
M223.383316,339.018585 
	C239.172302,336.630157 254.885605,337.224335 269.909668,342.621460 
	C285.358582,348.171143 299.067474,357.152008 312.331207,366.776947 
	C318.220245,371.050385 324.424927,374.888824 331.450409,379.566620 
	C328.055145,367.116302 325.358246,355.850067 321.889526,344.826691 
	C316.565460,327.907135 314.090942,310.881012 316.958282,293.176208 
	C319.055389,280.227386 323.765015,268.411682 330.316528,257.130310 
	C339.787445,240.821930 354.747131,230.238983 369.127472,218.987991 
	C375.461945,214.031952 381.639038,208.874710 388.188049,203.565231 
	C372.473633,202.673187 357.528809,201.448471 342.563660,201.100937 
	C331.662109,200.847763 321.152100,199.104767 311.230896,194.873550 
	C293.896637,187.480774 278.903839,176.987061 267.675842,161.372086 
	C258.370270,148.430695 253.359543,133.669540 247.969666,118.998589 
	C245.046524,111.041946 242.045868,103.113792 238.664581,94.060043 
	C233.492889,108.024330 228.568146,120.831993 223.998123,133.764999 
	C214.908325,159.488724 198.393478,178.639450 174.228897,191.348862 
	C159.593643,199.046265 143.721130,201.020828 127.635132,201.907761 
	C115.067635,202.600677 102.466698,202.686920 89.880951,203.054321 
	C89.769058,203.057587 89.661804,203.220047 89.379120,203.447769 
	C89.589981,203.793869 89.732040,204.254898 90.043488,204.505188 
	C100.075645,212.567535 109.911346,220.894775 120.220932,228.586594 
	C135.049210,239.649734 146.552124,253.162445 153.761459,270.310699 
	C162.506561,291.112030 164.433197,312.322388 158.379349,334.170898 
	C154.271408,348.996674 150.269135,363.851715 146.073547,379.228882 
	C150.503021,376.296783 154.476059,373.539246 158.572296,370.978851 
	C171.715027,362.764038 184.561600,353.980652 198.211105,346.709412 
	C205.574646,342.786743 214.342102,341.499481 223.383316,339.018585 
z"/>
<path fill="#000000" opacity="1.000000" stroke="none" 
	d="
M222.929749,339.020874 
	C214.342102,341.499481 205.574646,342.786743 198.211105,346.709412 
	C184.561600,353.980652 171.715027,362.764038 158.572296,370.978851 
	C154.476059,373.539246 150.503021,376.296783 146.073547,379.228882 
	C150.269135,363.851715 154.271408,348.996674 158.379349,334.170898 
	C164.433197,312.322388 162.506561,291.112030 153.761459,270.310699 
	C146.552124,253.162445 135.049210,239.649734 120.220932,228.586594 
	C109.911346,220.894775 100.075645,212.567535 90.043488,204.505188 
	C89.732040,204.254898 89.589981,203.793869 89.379120,203.447769 
	C89.661804,203.220047 89.769058,203.057587 89.880951,203.054321 
	C102.466698,202.686920 115.067635,202.600677 127.635132,201.907761 
	C143.721130,201.020828 159.593643,199.046265 174.228897,191.348862 
	C198.393478,178.639450 214.908325,159.488724 223.998123,133.764999 
	C228.568146,120.831993 233.492889,108.024330 238.664581,94.060043 
	C242.045868,103.113792 245.046524,111.041946 247.969666,118.998589 
	C253.359543,133.669540 258.370270,148.430695 267.675842,161.372086 
	C278.903839,176.987061 293.896637,187.480774 311.230896,194.873550 
	C321.152100,199.104767 331.662109,200.847763 342.563660,201.100937 
	C357.528809,201.448471 372.473633,202.673187 388.188049,203.565231 
	C381.639038,208.874710 375.461945,214.031952 369.127472,218.987991 
	C354.747131,230.238983 339.787445,240.821930 330.316528,257.130310 
	C323.765015,268.411682 319.055389,280.227386 316.958282,293.176208 
	C314.090942,310.881012 316.565460,327.907135 321.889526,344.826691 
	C325.358246,355.850067 328.055145,367.116302 331.450409,379.566620 
	C324.424927,374.888824 318.220245,371.050385 312.331207,366.776947 
	C299.067474,357.152008 285.358582,348.171143 269.909668,342.621460 
	C254.885605,337.224335 239.172302,336.630157 222.929749,339.020874 
z"/>
</svg>