<?xml version="1.0" standalone="no"?>
<!DOCTYPE svg PUBLIC "-//W3C//DTD SVG 1.1//EN" "http://www.w3.org/Graphics/SVG/1.1/DTD/svg11.dtd">
<svg xmlns="http://www.w3.org/2000/svg" xmlns:xlink="http://www.w3.org/1999/xlink" preserveAspectRatio="xMidYMid meet" version="1.0" viewBox="-0.1 -0.1 491.3 217.1" zoomAndPan="magnify" style="fill: rgb(0, 0, 0);" original_string_length="6665" width="491.29998779296875" height="217.10000610351562"><g id="__id3_srzyrja1pm"><path d="M93.6,0.7c-3,0.3-6,0.8-9,1.4c-1,0.2-2.1,0.4-3.1,0.6C79.8,3,78.1,3.5,76.4,4C70.7,5.6,65,7.8,59.6,10.3 c-0.1,0.1-0.2,0.1-0.4,0.2c-1.7,0.8-3.3,1.6-4.9,2.5c-6,3.3-11.6,7.3-16.8,11.6c-3.9,3.2-7.5,6.8-10.9,10.5 c-0.5,0.6-1.1,1.2-1.6,1.8c-3.2,3.8-6.2,7.8-8.8,12c-2.1,3.2-3.9,6.6-5.6,10.1c-1.5,3.1-2.8,6.2-4,9.4C5.8,70.7,5,73,4.3,75.3 c-2.2,7.3-3.4,14.8-4,22.4c-0.2,2-0.2,3.9-0.3,5.9c0,0.2,0,0.3,0,0.5c-0.1,6.3,0.5,12.6,1.5,18.8c0.3,2.1,0.8,4.3,1.3,6.4 c0.8,3.4,1.8,6.7,2.9,10c0.4,1.2,0.9,2.4,1.3,3.6c0.8,1.9,1.6,3.9,2.4,5.7c0.2,0.5,0.4,1,0.7,1.5c1.6,3.4,3.4,6.8,5.4,10 c0.5,0.8,1,1.5,1.4,2.3c3.2,4.9,6.8,9.5,10.7,13.7c3.3,3.6,6.8,6.9,10.5,10c2.1,1.8,4.3,3.4,6.6,5c1,0.7,2,1.4,3.1,2.1 c2.2,1.5,4.5,2.8,6.9,4.1c0,0,0.1,0,0.1,0.1c4.6,2.5,9.3,4.6,14.2,6.4c6.9,2.6,14.1,4.3,21.5,5.3c7.9,1.1,15.7,1.3,23.6,0.6 c8.2-0.7,16.2-2.4,24-4.9c14.7-4.8,28.1-13,39.3-23.6c5.6-5.2,10.4-11.2,14.7-17.4c4.5-6.5,8-13.6,10.9-20.9 c2.9-7.3,4.8-15,5.9-22.8c1.1-8.1,1.4-16.2,0.7-24.4c-1.4-15.6-6.3-30.8-14.3-44.3C191.7,45,187.1,39,182,33.5 c-5.1-5.5-10.8-10.3-16.9-14.7c-5.8-4.1-12.1-7.6-18.7-10.4c-6.9-2.9-14-5.2-21.4-6.6c-6.1-1.2-12.2-1.8-18.4-1.9 c-0.2,0-0.4,0-0.7,0c-0.2,0-0.3,0-0.5,0C101.5,0,97.6,0.2,93.6,0.7L93.6,0.7L93.6,0.7z M117.4,13.3c8.1,1.2,16,3.3,23.5,6.4 c7.4,3.2,14.3,7.2,20.7,12.1c6.2,4.9,11.8,10.5,16.7,16.7c4.9,6.4,8.9,13.3,12.1,20.7c3.1,7.6,5.3,15.5,6.4,23.7 c1,8.2,1,16.5,0,24.8c-1.2,8.1-3.4,16-6.5,23.6c-3.2,7.3-7.2,14.2-12,20.5c-4.9,6.2-10.5,11.8-16.7,16.7 c-6.4,4.8-13.3,8.9-20.6,12.1c-7.6,3.1-15.5,5.3-23.7,6.4c-8.2,1-16.4,1-24.6,0c-7.6-1.1-15-3.1-22.2-5.9c-0.5-0.2-1-0.4-1.4-0.6 c-1.7-0.7-3.4-1.5-5-2.4c0,0,0,0,0,0c-0.1-0.1-0.2-0.1-0.3-0.2c-0.1,0-0.1-0.1-0.2-0.1c-0.1,0-0.1-0.1-0.2-0.1 c-5.2-2.7-10.2-5.8-14.9-9.4c-4.5-3.6-8.7-7.5-12.5-11.8c0,0,0,0,0-0.1c-0.1-0.1-0.1-0.1-0.2-0.2c-0.1-0.1-0.1-0.1-0.2-0.2 c0,0,0-0.1-0.1-0.1c-1.3-1.4-2.5-2.9-3.7-4.4c-4.6-6.1-8.5-12.7-11.7-19.7c0,0,0-0.1,0-0.1c0,0,0-0.1-0.1-0.1 c-0.1-0.2-0.2-0.5-0.3-0.7c-0.4-0.9-0.7-1.7-1-2.6c0-0.1-0.1-0.2-0.1-0.3c0,0,0,0,0-0.1c-2.3-6.1-3.9-12.3-5-18.7c0,0,0-0.1,0-0.1 c0-0.1,0-0.2,0-0.2c0-0.1,0-0.1,0-0.2c0,0,0-0.1,0-0.1c-0.1-0.4-0.1-0.9-0.2-1.3c-1-8.3-1-16.6,0-24.8c0.7-4.4,1.6-8.8,2.8-13 c0,0,0,0,0,0c0-0.1,0.1-0.2,0.1-0.3c0-0.1,0-0.2,0.1-0.2c0,0,0-0.1,0-0.1c1-3.3,2.1-6.5,3.4-9.7c3.2-7.3,7.2-14.2,12.1-20.6 c1.6-2.1,3.3-4,5.1-6c0,0,0,0,0,0c0.1-0.1,0.1-0.2,0.2-0.2c0,0,0-0.1,0.1-0.1c0.1-0.1,0.1-0.1,0.2-0.2c0,0,0.1-0.1,0.1-0.1 c0,0,0.1-0.1,0.1-0.1c0.1-0.1,0.1-0.1,0.2-0.2c0,0,0.1-0.1,0.1-0.1c0.1-0.1,0.1-0.1,0.2-0.2c0,0,0,0,0.1-0.1 c0.1-0.1,0.2-0.2,0.2-0.2c0,0,0,0,0,0c3-3.1,6.2-6,9.5-8.7c0,0,0,0,0,0c0.1-0.1,0.2-0.2,0.3-0.2c0,0,0,0,0,0 c0.1-0.1,0.2-0.1,0.3-0.2c0,0,0,0,0,0c6.4-4.8,13.3-8.9,20.6-12.1c0.9-0.3,1.7-0.7,2.6-1c0.1,0,0.1,0,0.2-0.1c0.1,0,0.1,0,0.2-0.1 c5.6-2.1,11.3-3.6,17.1-4.7c0,0,0.1,0,0.1,0c0,0,0,0,0.1,0c1.1-0.2,2.1-0.4,3.2-0.5c1.2-0.2,2.5-0.3,3.7-0.4 C103.3,12.3,110.4,12.4,117.4,13.3L117.4,13.3L117.4,13.3z M190.2,141.7c-0.1,0.2-0.1,0.3-0.2,0.5 C190.1,142,190.2,141.8,190.2,141.7L190.2,141.7L190.2,141.7z" style="fill: inherit;"/></g><g id="__id4_srzyrja1pm"><path d="M360.3,8.6c-7.5,1.8-14.8,4.7-21.8,8.1c-2.5,1.2-4.9,2.6-7.3,4c-0.5,0.3-1.1,0.7-1.6,1c-4.2,2.6-8.2,5.6-12,8.8 c-2.2,1.9-4.4,3.9-6.5,6c-5.2,5.2-9.9,11.1-13.9,17.3c-2,3.1-3.8,6.3-5.5,9.6c-0.3,0.5-0.5,1.1-0.8,1.6c-1.4,3-2.7,6-3.9,9.1 c0,0.1,0,0.1-0.1,0.2c-2.7,7-4.4,14.4-5.4,21.8c-1.1,8-1.3,16-0.6,24.1c1.4,15.5,6.3,30.5,14.1,43.9c3.8,6.5,8.4,12.5,13.4,18 c5.1,5.6,11,10.5,17.1,14.9c6.3,4.5,13.1,8,20.2,11c7.1,2.9,14.4,5,22,6.3c16,2.7,32.4,1.7,48-2.9c15.2-4.5,29.1-12.7,40.9-23.3 c11.3-10.3,20.1-23.2,26-37.3c6-14.4,8.6-30.2,7.8-45.9c-0.8-15.7-5.3-31-12.8-44.8c-3.6-6.6-8-12.7-12.9-18.4 c-4.9-5.8-10.6-10.8-16.6-15.4c-5.8-4.4-12.2-8.1-18.8-11.2c-7.1-3.2-14.4-5.7-22-7.3c-7.1-1.5-14.3-2.2-21.5-2.2 C377.3,5.6,368.7,6.6,360.3,8.6L360.3,8.6L360.3,8.6z M398.1,18.8c8.1,1.2,16,3.3,23.6,6.4c7.3,3.2,14.1,7.2,20.5,11.9 c6.3,4.9,11.9,10.6,16.9,16.8c4.8,6.3,8.8,13.2,12,20.5c3.1,7.6,5.3,15.6,6.5,23.7c1,8.3,1,16.6,0,24.8c-1.2,8.1-3.3,16-6.4,23.6 c-3.2,7.3-7.2,14.2-12,20.6c-5,6.3-10.6,11.9-16.8,16.8c-6.4,4.8-13.4,8.9-20.7,12.1c-7.6,3.1-15.4,5.2-23.5,6.4 c-8.2,1-16.5,1-24.8,0c-8-1.2-15.9-3.3-23.4-6.4c-7.4-3.2-14.3-7.2-20.7-12.1c-6.3-5-11.9-10.6-16.9-16.9c-4.8-6.4-8.8-13.2-12-20.6 c-3.1-7.6-5.2-15.5-6.4-23.6c-1-8.3-1-16.6,0-24.8c1.1-7.7,3.1-15.2,6-22.4c0,0,0,0,0-0.1c0,0,0-0.1,0-0.1c0.1-0.3,0.2-0.6,0.4-0.9 c0.6-1.4,1.2-2.8,1.9-4.1c0,0,0-0.1,0-0.1c0-0.1,0.1-0.2,0.1-0.3c2.8-5.7,6.1-11.1,10-16.2c4.9-6.2,10.6-11.9,16.8-16.8 c0.2-0.2,0.4-0.3,0.6-0.5c0,0,0.1,0,0.1-0.1c0.1,0,0.1-0.1,0.2-0.1c5.9-4.3,12.2-8,18.9-11c0,0,0,0,0,0c0.1,0,0.2-0.1,0.3-0.1 c0,0,0.1,0,0.1-0.1c0.1,0,0.1-0.1,0.2-0.1c0.1,0,0.2-0.1,0.2-0.1c0,0,0,0,0,0c0.3-0.1,0.6-0.2,0.9-0.4c7.3-2.9,14.9-4.9,22.7-6.1 C381.6,17.8,389.9,17.8,398.1,18.8L398.1,18.8L398.1,18.8z" style="fill: inherit;"/></g><g id="__id5_srzyrja1pm"><path d="M241.7,69.9c-3.4,0.2-6.9,0.7-10.2,1.6c-1.2,0.3-2.3,0.6-3.5,1c-3.1,1-6.2,2.5-9,4.1c-1.2,0.7-2.4,1.5-3.5,2.3 c0,0-0.1,0.1-0.1,0.1c-0.1,0.1-0.2,0.2-0.4,0.3c-1,0.8-2,1.5-3,2.4c-3.6,2.9-6.5,6.4-9.2,10.1c-1.7,2.5-3.2,5.1-4.4,7.9 c0,0,0,0.1-0.1,0.1c0,0,0,0.1,0,0.1c0,0.1-0.1,0.2-0.1,0.2c-0.3,0.5-0.5,1-0.6,1.5c0,0.1-0.1,0.1-0.1,0.2c-0.6,1.5-0.1,3.5,0.6,4.8 c0.8,1.4,2.2,2.4,3.7,2.9c1.6,0.4,3.4,0.2,4.8-0.6c0.4-0.3,0.8-0.7,1.3-1c0.7-0.8,1.3-1.6,1.6-2.6c1.3-2.9,2.9-5.6,4.8-8.2 c2-2.5,4.3-4.8,6.8-6.8c2.6-1.9,5.4-3.5,8.3-4.9c3.1-1.2,6.2-2.1,9.5-2.6c3.4-0.4,6.7-0.4,10.1,0c2,0.3,4,0.8,5.9,1.4 c0.1,0,0.1,0,0.2,0c0,0,0.1,0,0.1,0c1.1,0.3,2.3,0.7,3.4,1.2c3,1.3,5.8,3,8.4,4.9c0.2,0.2,0.5,0.4,0.7,0.6c2.2,1.9,4.2,3.9,6,6.1 c1.6,2.2,3.1,4.6,4.3,7c0,0,0,0,0,0c0,0,0,0.1,0.1,0.1c0.2,0.4,0.4,0.8,0.6,1.3c0.8,2.1,1.5,4.1,2,6.3c0.3,1.1,0.5,2.2,0.7,3.4 c0.1,0.9,0.2,1.9,0.2,2.8c0,0,0,0.1,0,0.1c0,0.1,0,0.2,0,0.3c0,0,0,0.1,0,0.1c0,0.1,0,0.2,0,0.3c0,0,0,0.1,0,0.1c0,0.1,0,0.2,0,0.3 c0,0,0,0.1,0,0.1c0,0.1,0,0.2,0,0.3c0,0,0,0,0,0.1c0,0.1,0,0.2,0,0.4c0,0,0,0,0,0c0,0.1,0,0.3,0,0.4c0,3.4,2.9,6.3,6.3,6.3 c3.4,0,6.2-2.8,6.3-6.3c0-4.8-0.6-9.7-2-14.4c0,0,0-0.1,0-0.1c0,0,0,0,0,0c-0.3-1-0.6-2.1-1-3.1c-0.8-2.1-1.7-4.2-2.8-6.1 c-0.8-1.5-1.7-3.1-2.7-4.5c-1.5-2.2-3.2-4.4-5.1-6.3c-0.2-0.2-0.4-0.5-0.6-0.7c-0.6-0.6-1.2-1.2-1.9-1.8c-2-1.9-4.2-3.6-6.5-5.1 c-1.5-1-3-1.9-4.6-2.6c-0.7-0.4-1.4-0.7-2.2-1c-0.3-0.1-0.6-0.3-0.9-0.4c-2.6-1.1-5.3-2-8.1-2.7c-0.9-0.2-1.8-0.4-2.8-0.6 c-2.1-0.4-4.3-0.6-6.5-0.7c-0.1,0-0.3,0-0.4,0c-0.6,0-1.3,0-1.9,0C243.3,69.8,242.5,69.8,241.7,69.9L241.7,69.9L241.7,69.9z" style="fill: inherit;"/></g></svg>